<svg xmlns="http://www.w3.org/2000/svg" xmlns:xlink="http://www.w3.org/1999/xlink" width="573.999" height="664" viewBox="0 0 573.999 664">
  <defs>
    <filter id="Path_58" x="0" y="0" width="573.999" height="573.998" filterUnits="userSpaceOnUse">
      <feOffset dx="2" dy="5" input="SourceAlpha"/>
      <feGaussianBlur stdDeviation="3.5" result="blur"/>
      <feFlood flood-color="#283046"/>
      <feComposite operator="in" in2="blur"/>
      <feComposite in="SourceGraphic"/>
    </filter>
  </defs>
  <g id="Group_86" data-name="Group 86" transform="translate(4560.5 -686)">
    <g transform="matrix(1, 0, 0, 1, -4560.5, 686)" filter="url(#Path_58)">
      <path id="Path_58-2" data-name="Path 58" d="M276.5,0C429.206,0,553,123.793,553,276.5S429.206,553,276.5,553,0,429.206,0,276.5,123.793,0,276.5,0Z" transform="translate(8.5 5.5)" fill="#0d1023"/>
    </g>
    <g id="Ellipse_14" data-name="Ellipse 14" transform="translate(-4461.322 772.304)" fill="#df56ad" stroke="#707070" stroke-width="1">
      <ellipse cx="185.82" cy="196.436" rx="185.82" ry="196.436" stroke="none"/>
      <ellipse cx="185.82" cy="196.436" rx="185.32" ry="195.936" fill="none"/>
    </g>
    <g id="Ellipse_15" data-name="Ellipse 15" transform="translate(-4377.085 873.143)" fill="#f1e7e7" stroke="#707070" stroke-width="1">
      <circle cx="101.584" cy="101.584" r="101.584" stroke="none"/>
      <circle cx="101.584" cy="101.584" r="101.084" fill="none"/>
    </g>
    <text id="Drizzle_Systems_and_Software" data-name="Drizzle Systems and Software" transform="translate(-4287 1324)" fill="#82868b" font-size="81" font-family="Parchment-Regular, Parchment"><tspan x="-264.694" y="0">Drizzle Systems and Software</tspan></text>
    <text id="D" transform="translate(-4283 990)" fill="#82868b" font-size="102" font-family="Parchment-Regular, Parchment"><tspan x="-36.009" y="0">D</tspan></text>
  </g>
</svg>
